<svg xmlns="http://www.w3.org/2000/svg" id="Camada_1" data-name="Camada 1" viewBox="0 0 1080 1080"><defs><style>.cls-1{fill:#333;}.cls-2{fill:#999;}.cls-3{fill:#0cd2ab;}</style></defs><path class="cls-1" d="M63.42,751.24c-5.1-4.68-4.26-9.79.85-14.46L83.4,720.62c4.68-4.26,9.36-3.83,14.46,0,13.61,11,28.49,13.61,41.25,13.61,18.29,0,51.45-10.21,51.45-52.31v-7.23c-13.18,14.88-31.89,24.24-56.55,24.24-53.58,0-92.28-42.95-92.28-101.21S80.43,496.94,134,496.94c24.66,0,43.37,8.93,56.55,24.24V510.12c0-6.38,3.83-10.2,10.21-10.2h32.74c6.38,0,10.21,3.82,10.21,10.2v171.8c0,56.13-37,97-104.61,97C108.07,778.88,81.7,768.24,63.42,751.24ZM190.56,597.72c0-29.34-19.56-51-48.9-51s-48.48,21.69-48.48,51,19.14,51,48.48,51S190.56,627.07,190.56,597.72Z"></path><path class="cls-1" d="M283.24,651.93V507.79c0-5.25,3.15-8.4,8.39-8.4h26.94c5.25,0,8.4,3.15,8.4,8.4v20.64a65.86,65.86,0,0,1,47.93-30.79c5.6-.7,8.75,2.45,8.75,8.05v24.14c0,5.25-2.8,8-8,8.4C357.06,540,327,547.32,327,586.5v65.43c0,5.25-3.15,8.4-8.4,8.4H291.63C286.39,660.33,283.24,657.18,283.24,651.93Z"></path><path class="cls-1" d="M403.41,579.86c0-48.63,32.18-82.92,76.27-82.92,20.29,0,35.33,7.35,46.18,19.59v-8.74c0-5.25,3.15-8.4,8.39-8.4h26.94c5.25,0,8.4,3.15,8.4,8.4V651.93c0,5.25-3.15,8.4-8.4,8.4H534.25c-5.24,0-8.39-3.15-8.39-8.4v-8.4c-10.85,12.25-25.89,19.6-46.18,19.6C435.59,663.13,403.41,627.79,403.41,579.86Zm122.45,0c0-24.14-15.75-42-39.89-42s-40.23,17.85-40.23,42,16.09,42,40.23,42S525.86,604,525.86,579.86Z"></path><path class="cls-1" d="M609.11,651.93V507.79c0-5.25,3.14-8.4,8.39-8.4h26.94c5.25,0,8.4,2.8,8.4,7.7v7.69c12.24-13.29,29.39-17.84,45.13-17.84,29,0,62.63,15.74,62.63,65.08v89.91c0,5.25-3.15,8.4-8.4,8.4H725.26c-5.25,0-8.4-3.15-8.4-8.4V568.66c0-28.34-19.94-35-32.18-35-12.6,0-31.84,6.64-31.84,35v83.27c0,5.25-3.15,8.4-8.4,8.4H617.5C612.25,660.33,609.11,657.18,609.11,651.93Z"></path><path class="cls-1" d="M800.13,613.8V532.63H787.54c-5.25,0-8.4-3.15-8.4-8.4V507.79c0-5.25,3.15-8.4,8.4-8.4h12.59V458.46c0-5.25,3.15-8.4,8.4-8.4h26.94c5.24,0,8.39,3.15,8.39,8.4v40.93h25.89c5.25,0,8.4,3.15,8.4,8.4v16.44c0,5.25-3.15,8.4-8.4,8.4H843.86V606.8c0,18.89,11.55,19.59,21.7,19.59H868c5.24,0,8.39,3.15,8.39,8.4v17.14c0,5.25-3.15,8.4-8.39,8.4H847.36C815.18,660.33,800.13,643.53,800.13,613.8Z"></path><path class="cls-1" d="M883.3,579.86c0-48.63,34.28-83.62,82.91-83.62,49,0,82.92,35,82.92,83.62,0,47.93-33.94,84-82.92,84C917.58,663.83,883.3,627.79,883.3,579.86Zm122.8,0c0-24.14-15.75-42-39.89-42-23.79,0-39.88,17.85-39.88,42s16.09,42,39.88,42C990.35,621.84,1006.1,604,1006.1,579.86Z"></path><path class="cls-2" d="M609.64,729.18c-1-1.7-.52-3.14,1.18-4.31l6.15-4.06c1.57-1,2.88-.65,4.19.79A20.86,20.86,0,0,0,635.55,728c5.62,0,8.63-1.7,8.63-5.63,0-4.84-7.72-6.15-12.43-7.72S611,709.3,611,696.09c0-12.82,11.25-18.32,24.2-18.32,11.39,0,19.36,4.58,23.29,10.08,1.18,1.7.65,3.27-1.05,4.31l-5.49,3.54c-1.57,1-3,.78-4.45-.53a21.05,21.05,0,0,0-12.82-5c-5.36,0-7.72,2.09-7.72,5.1,0,4.84,7.46,6.15,12.17,7.72s21.06,5.76,21.06,18.71c0,12.69-9.42,19.36-24.86,19.36C622.2,741.09,613.57,735.46,609.64,729.18Z"></path><path class="cls-2" d="M668.64,709.17c0-17.92,11.78-31.27,30-31.27,17.92,0,28.91,13.35,28.91,31.27v1.31a2.89,2.89,0,0,1-3.14,3.14h-40c1.57,8.11,7.46,13,14.91,13,6,0,9.82-2.1,12.3-4.32,1.44-1.31,2.75-1.57,4.32-.39l6.15,4.58c1.7,1.3,2.09,2.61.91,4-5.36,6.28-13.73,10.07-23.68,10.07C680.81,740.56,668.64,727.09,668.64,709.17Zm43.56-5.89c-1.43-7.06-5.88-12.42-13.6-12.42-7.46,0-12.43,4.84-14,12.42Z"></path><path class="cls-2" d="M744.12,756.39c-1.57-1.44-1.31-3,.26-4.44l5.89-5c1.44-1.3,2.88-1.17,4.45,0a19.34,19.34,0,0,0,12.69,4.19c5.62,0,15.83-3.14,15.83-16.09v-2.22c-4.06,4.57-9.82,7.45-17.4,7.45-16.49,0-28.39-13.21-28.39-31.13s11.9-31,28.39-31c7.58,0,13.34,2.74,17.4,7.45v-3.4a2.89,2.89,0,0,1,3.14-3.14h10.07a2.89,2.89,0,0,1,3.14,3.14v52.85c0,17.27-11.38,29.83-32.18,29.83C757.86,764.9,749.75,761.63,744.12,756.39Zm39.12-47.22c0-9-6-15.7-15-15.7s-14.91,6.67-14.91,15.7,5.89,15.7,14.91,15.7S783.24,718.19,783.24,709.17Z"></path><path class="cls-2" d="M814,716V682.22a2.89,2.89,0,0,1,3.14-3.14h10.07a2.89,2.89,0,0,1,3.14,3.14v31.13c0,10.6,7.46,13.09,12.17,13.09s11.77-2.49,11.77-13.09V682.22a2.89,2.89,0,0,1,3.14-3.14h10.07a2.89,2.89,0,0,1,3.14,3.14v53.9a2.89,2.89,0,0,1-3.14,3.14H857.41c-2,0-3.14-1-3.14-2.75v-2.75c-4.58,4.84-10.86,6.54-16.74,6.54C826.67,740.3,814,734.42,814,716Z"></path><path class="cls-2" d="M885,736.12v-53.9a2.89,2.89,0,0,1,3.14-3.14h10.08a2.89,2.89,0,0,1,3.14,3.14v7.72a24.6,24.6,0,0,1,17.92-11.51c2.09-.26,3.27.91,3.27,3v9a2.85,2.85,0,0,1-3,3.14c-6.93.66-18.18,3.4-18.18,18v24.47a2.89,2.89,0,0,1-3.14,3.14H888.15A2.89,2.89,0,0,1,885,736.12Z"></path><path class="cls-2" d="M928.18,709.17c0-18.18,12.82-31.27,31-31.27s31,13.09,31,31.27c0,17.92-12.69,31.39-31,31.39S928.18,727.09,928.18,709.17Zm45.92,0c0-9-5.89-15.7-14.91-15.7s-14.91,6.67-14.91,15.7,6,15.7,14.91,15.7S974.1,718.19,974.1,709.17Z"></path><path class="cls-2" d="M998.82,729.18c-1-1.7-.52-3.14,1.18-4.31l6.15-4.06c1.57-1,2.88-.65,4.19.79a20.86,20.86,0,0,0,14.39,6.41c5.62,0,8.63-1.7,8.63-5.63,0-4.84-7.72-6.15-12.43-7.72s-20.8-5.36-20.8-18.57c0-12.82,11.25-18.32,24.2-18.32,11.39,0,19.37,4.58,23.29,10.08,1.18,1.7.65,3.27-1,4.31l-5.49,3.54c-1.57,1-3,.78-4.45-.53a21.05,21.05,0,0,0-12.82-5c-5.36,0-7.72,2.09-7.72,5.1,0,4.84,7.46,6.15,12.17,7.72s21.06,5.76,21.06,18.71c0,12.69-9.42,19.36-24.85,19.36C1011.38,741.09,1002.75,735.46,998.82,729.18Z"></path><path class="cls-3" d="M608.76,381.23C724,249,959.28,287.91,1034.57,443.68a188.89,188.89,0,0,1,11.47,30.5c-4.43-3.28-8.54-6.67-12.62-10-11.16-8.88-25.29-19.48-37.08-27.6-121-83.17-248.4-95.45-387.58-55.35Z"></path></svg>